<svg width="48" height="36" viewBox="0 0 48 36" fill="none" xmlns="http://www.w3.org/2000/svg">
<path d="M45.0001 10.4999H38.88L30.7779 1.04713C29.6983 -0.209681 27.8029 -0.356213 26.5475 0.721915C25.2891 1.80004 25.1441 3.69417 26.2222 4.95249L30.9772 10.5H17.023L21.7779 4.95249C22.856 3.69417 22.711 1.80014 21.4527 0.722009C20.1973 -0.354619 18.3018 -0.208088 17.2222 1.04723L9.12012 10.4999H3.00001C1.34325 10.4999 0 11.8431 0 13.4999C0 15.1566 1.34325 16.4999 3.00001 16.4999H3.03301C3.03301 16.5936 3.00667 16.6631 3.02054 16.7459L5.60308 32.2396C5.96486 34.4178 7.83115 36 10.0416 36H37.9586C40.1691 36 42.0353 34.4178 42.3972 32.2396L44.9797 16.746C44.9936 16.6632 44.9672 16.5937 44.9672 16.5H45.0001C46.6569 16.5 48.0001 15.1567 48.0001 13.5C48.0001 11.8432 46.6569 10.4999 45.0001 10.4999ZM16.5 28.4997C16.5 29.3289 15.8292 29.9998 15 29.9998C14.1709 29.9998 13.5 29.3289 13.5 28.4997V20.9997C13.5 20.1706 14.1709 19.4997 15 19.4997C15.8292 19.4997 16.5 20.1706 16.5 20.9997V28.4997ZM22.5001 28.4997C22.5001 29.3289 21.8292 29.9998 21.0001 29.9998C20.1709 29.9998 19.5001 29.3289 19.5001 28.4997V20.9997C19.5001 20.1706 20.1709 19.4997 21.0001 19.4997C21.8292 19.4997 22.5001 20.1706 22.5001 20.9997V28.4997ZM28.5001 28.4997C28.5001 29.3289 27.8292 29.9998 27.0001 29.9998C26.171 29.9998 25.5001 29.3289 25.5001 28.4997V20.9997C25.5001 20.1706 26.171 19.4997 27.0001 19.4997C27.8292 19.4997 28.5001 20.1706 28.5001 20.9997V28.4997ZM34.5001 28.4997C34.5001 29.3289 33.8292 29.9998 33.0001 29.9998C32.171 29.9998 31.5001 29.3289 31.5001 28.4997V20.9997C31.5001 20.1706 32.171 19.4997 33.0001 19.4997C33.8292 19.4997 34.5001 20.1706 34.5001 20.9997V28.4997Z" fill="#59468D"/>
</svg>
