<svg width="107" height="63" viewBox="0 0 107 63" fill="none" xmlns="http://www.w3.org/2000/svg">
<path d="M4.79958 54.3269V62.4874H1.02078C1.02078 56.5376 0.833034 50.3656 1.06574 44.4264C1.26407 39.3836 5.44216 35.1129 10.5855 34.0922C13.0986 33.5996 15.7034 33.9242 18.0187 35.0186C20.3341 36.1129 22.2384 37.9196 23.4529 40.1743C24.6165 42.366 25.0392 44.8755 24.6579 47.3275C24.2765 49.7794 23.1116 52.042 21.3374 53.7769C19.4882 55.5872 17.107 56.7566 14.5438 57.1132C11.9806 57.4697 9.37062 56.9945 7.09754 55.7575C6.40207 55.3688 5.74627 54.9192 4.79958 54.3269ZM12.8279 37.4506C11.2136 37.4408 9.63306 37.9122 8.28787 38.8046C6.94268 39.697 5.89388 40.9699 5.27528 42.461C4.65669 43.952 4.49636 45.5936 4.81475 47.1761C5.13315 48.7587 5.91583 50.2105 7.06292 51.3464C8.21001 52.4822 9.6695 53.2505 11.2551 53.5532C12.8408 53.856 14.4807 53.6795 15.9655 53.0462C17.4504 52.4129 18.7129 51.3516 19.592 49.9976C20.4711 48.6437 20.9268 47.0585 20.9011 45.4445C20.8892 43.3143 20.0323 41.2759 18.5186 39.777C17.0049 38.2782 14.9581 37.4414 12.8279 37.4506Z" fill="#59468D"/>
<path d="M1.19495 2.30176H4.36819V9.66632C4.95524 9.22471 5.27785 8.98671 5.59517 8.73814C7.70929 7.05916 10.3343 6.15409 13.0339 6.17334C15.7336 6.19258 18.3454 7.13497 20.4353 8.84392C22.4661 10.4538 23.8937 12.7022 24.487 15.2248C25.0802 17.7475 24.8042 20.3965 23.7038 22.7427C21.4138 27.7009 15.7548 30.4881 10.355 29.314C4.95524 28.1399 1.12619 23.5915 1.04686 18.123C0.975465 13.0432 1.03364 7.9607 1.04157 2.8703C1.07462 2.67636 1.12597 2.486 1.19495 2.30176ZM20.9113 17.8004C20.9066 15.6667 20.0618 13.6207 18.5597 12.1053C17.0577 10.5899 15.0192 9.72697 12.8857 9.70334C8.42464 9.68747 4.76748 13.4266 4.83095 17.9432C4.89441 22.4598 8.41407 26.0085 12.846 26.0323C17.278 26.0561 20.9351 22.3143 20.9113 17.8004Z" fill="#59468D"/>
<path d="M51.261 57.183H47.9238V53.8141C45.0706 56.4769 41.9952 57.4897 38.4967 57.2253C32.1978 56.752 27.4194 51.5637 27.5543 45.3256C27.6892 39.0876 32.7637 34.0686 39.1578 33.8703C45.38 33.6799 50.875 38.4476 51.2161 44.6328C51.4541 48.7845 51.261 52.9441 51.261 57.183ZM31.4283 45.5134C31.3901 46.5769 31.5639 47.6373 31.9393 48.633C32.3148 49.6287 32.8846 50.5398 33.6154 51.3132C34.3463 52.0867 35.2237 52.7071 36.1965 53.1383C37.1694 53.5695 38.2183 53.803 39.2822 53.8251C40.3461 53.8472 41.4038 53.6574 42.3937 53.267C43.3836 52.8765 44.286 52.2931 45.0483 51.5506C45.8106 50.8082 46.4177 49.9215 46.8342 48.9423C47.2507 47.963 47.4683 46.9107 47.4743 45.8466C47.5774 41.2771 44.0895 37.5274 39.6338 37.4163C35.252 37.3079 31.497 41.0127 31.4257 45.5134H31.4283Z" fill="#59468D"/>
<path d="M39.4698 6.04346C46.0252 6.04346 51.3324 11.2264 51.3562 17.6549C51.3827 24.1759 46.0675 29.4091 39.4249 29.3958C32.7822 29.3826 27.5808 24.2526 27.5675 17.7765C27.5543 11.1867 32.7849 6.04346 39.4698 6.04346ZM47.4875 17.6364C47.4568 16.053 46.9593 14.514 46.0573 13.2123C45.1553 11.9106 43.8891 10.9042 42.4174 10.3194C40.9457 9.7345 39.3341 9.59719 37.7847 9.92466C36.2353 10.2521 34.8171 11.0298 33.7079 12.1601C32.5987 13.2904 31.848 14.7231 31.5498 16.2784C31.2517 17.8337 31.4194 19.4425 32.032 20.9029C32.6445 22.3632 33.6746 23.6102 34.9931 24.4875C36.3116 25.3647 37.8597 25.8331 39.4434 25.8339C40.5126 25.8334 41.571 25.6198 42.5567 25.2058C43.5425 24.7917 44.4359 24.1854 45.1848 23.4223C45.9336 22.6591 46.523 21.7544 46.9183 20.761C47.3137 19.7676 47.5072 18.7054 47.4875 17.6364Z" fill="#59468D"/>
<path d="M101.433 33.8093V37.329C99.4472 37.329 97.5141 37.2973 95.5837 37.329C93.7591 37.366 92.4105 38.4026 92.1143 39.9205C91.7309 41.8323 93.0795 43.5723 95.1368 43.694C96.5912 43.7786 98.0457 43.7098 99.5106 43.7284C103.504 43.7812 106.479 46.7006 106.463 50.5323C106.447 54.2952 103.514 57.1432 99.5529 57.1855C95.991 57.2225 92.429 57.1855 88.7348 57.1855V53.6421C92.3153 53.6421 95.8746 53.6209 99.4181 53.6421C100.648 53.6421 101.642 53.3248 102.303 52.2273C103.625 50.0484 102.271 47.4358 99.6852 47.2612C98.2334 47.1634 96.7764 47.2612 95.3114 47.2269C91.3607 47.1475 88.4757 44.281 88.5021 40.4837C88.5286 36.6864 91.4109 33.8384 95.3563 33.7882C97.329 33.775 99.3176 33.8093 101.433 33.8093Z" fill="#59468D"/>
<path d="M75.7475 37.2785C75.7475 40.2534 75.6576 42.956 75.7686 45.6532C75.9511 50.0349 79.4205 53.4144 83.8313 53.6418C84.5241 53.6789 85.2196 53.6418 86.0314 53.6418V57.0187C78.3337 58.251 71.8656 52.8565 71.8338 45.2275C71.81 39.7193 71.8338 31.4768 71.8338 25.8311H75.6708V33.7351H82.2606V37.2732L75.7475 37.2785Z" fill="#59468D"/>
<path d="M58.3824 9.46013C58.3824 12.4377 58.2925 15.1402 58.4035 17.8348C58.5939 22.2192 62.0554 25.6119 66.4662 25.8261C67.159 25.8631 67.8545 25.8261 68.6663 25.8261V29.2003C60.9738 30.4379 54.5004 25.0434 54.4687 17.4144C54.4449 11.9062 54.4687 6.39796 54.4687 0.754883H58.3057V5.92462H64.9007V9.46013H58.3824Z" fill="#59468D"/>
<path d="M58.1523 57.1989H54.4502C54.4502 52.4707 54.0826 47.8034 54.5533 43.2207C55.0478 38.3974 59.4719 34.6133 64.3772 34.0342C65.8051 33.8676 67.2674 34.0078 68.8038 34.0078V37.5116C68.0105 37.5116 67.1696 37.5116 66.334 37.5116C61.6773 37.5803 58.2607 40.9492 58.1946 45.6139C58.1417 49.3398 58.1708 53.071 58.155 56.7996C58.1576 56.9053 58.1523 57.1989 58.1523 57.1989Z" fill="#59468D"/>
<path d="M92.6873 14.5293C96.4873 14.5293 99.5679 11.4488 99.5679 7.64871C99.5679 3.84863 96.4873 0.768066 92.6873 0.768066C88.8872 0.768066 85.8066 3.84863 85.8066 7.64871C85.8066 11.4488 88.8872 14.5293 92.6873 14.5293Z" fill="#D5D917"/>
<path d="M85.8071 0.768066V14.5188C83.9837 14.5188 82.2349 13.7944 80.9455 12.505C79.6561 11.2156 78.9318 9.46688 78.9318 7.64342C78.9318 5.81996 79.6561 4.07119 80.9455 2.78181C82.2349 1.49243 83.9837 0.768066 85.8071 0.768066Z" fill="#D5D917"/>
<path d="M106.457 7.64871C106.457 9.47216 105.733 11.2209 104.444 12.5103C103.154 13.7997 101.405 14.5241 99.582 14.5241V0.768066C100.485 0.768066 101.38 0.946077 102.214 1.29193C103.049 1.63778 103.807 2.14468 104.446 2.78368C105.084 3.42268 105.59 4.18123 105.936 5.016C106.281 5.85077 106.458 6.74538 106.457 7.64871Z" fill="#D5D917"/>
<path d="M106.457 23.1498V29.38H78.9268V23.1498C78.9268 21.3264 79.6511 19.5776 80.9405 18.2882C82.2299 16.9988 83.9787 16.2745 85.8021 16.2745V23.1498C85.8021 21.3264 86.5265 19.5776 87.8158 18.2882C89.1052 16.9988 90.854 16.2745 92.6775 16.2745C94.5009 16.2745 96.2497 16.9988 97.5391 18.2882C98.8284 19.5776 99.5528 21.3264 99.5528 23.1498V16.2745C100.458 16.2706 101.355 16.4457 102.193 16.7895C103.03 17.1333 103.792 17.6391 104.433 18.2779C105.075 18.9167 105.584 19.676 105.931 20.512C106.278 21.3481 106.457 22.2445 106.457 23.1498Z" fill="#D5D917"/>
</svg>
