<svg width="26" height="27" viewBox="0 0 26 27" fill="none" xmlns="http://www.w3.org/2000/svg">
<g clip-path="url(#clip0_54_945)">
<path d="M24.2289 17.9123C22.9082 16.851 21.6967 16.335 20.5251 16.335C18.8303 16.335 17.61 17.4131 16.5052 18.5175C16.3782 18.6447 16.2243 18.7039 16.0212 18.7039C15.0902 18.704 13.4524 17.5381 11.1533 15.2388C8.44849 12.5338 7.42585 10.8134 8.1135 10.1254C9.97762 8.26195 10.5596 6.39385 7.70547 2.84432C6.68373 1.57265 5.68407 0.95459 4.64939 0.95459C3.25402 0.95459 2.19327 2.06999 1.25741 3.05417C1.09561 3.2243 0.942774 3.38501 0.79292 3.53486C-0.264834 4.59253 -0.264291 6.89952 0.794458 9.70638C1.9561 12.7861 4.24969 16.1362 7.25283 19.1398C9.57529 21.4621 12.1023 23.3389 14.5607 24.599C16.7071 25.6992 18.789 26.2887 20.423 26.2887C20.4232 26.2887 20.4234 26.2887 20.4237 26.2887C21.4462 26.2887 22.2769 26.0656 22.8254 25.612C23.9397 24.6907 26.0138 22.9842 25.9999 20.9572C25.9923 19.87 25.3966 18.8512 24.2289 17.9123Z" fill="black"/>
</g>
<defs>
<clipPath id="clip0_54_945">
<rect width="26" height="26" fill="white" transform="translate(0 0.621582)"/>
</clipPath>
</defs>
</svg>
