<svg width="20" height="21" viewBox="0 0 20 21" fill="none" xmlns="http://www.w3.org/2000/svg">
<path d="M19.7389 18.74L14.0446 13.0457C14.9898 11.7843 15.557 10.2244 15.557 8.53069C15.557 4.36567 12.1689 0.977539 8.00383 0.977539C3.83881 0.977539 0.450684 4.36567 0.450684 8.53069C0.450684 12.6957 3.83881 16.0838 8.00383 16.0838C9.69754 16.0838 11.2574 15.5166 12.5188 14.5714L18.2132 20.2658L19.7389 18.74ZM1.17003 8.53069C1.17003 4.76239 4.23553 1.69689 8.00383 1.69689C11.7721 1.69689 14.8376 4.76239 14.8376 8.53069C14.8376 12.299 11.7721 15.3645 8.00383 15.3645C4.23553 15.3645 1.17003 12.299 1.17003 8.53069ZM13.2432 13.9592C13.3072 13.8974 13.3702 13.8344 13.432 13.7704C13.4845 13.7161 13.5414 13.6661 13.5921 13.6104L18.7218 18.74L18.2128 19.249L13.0835 14.1189C13.1393 14.0682 13.1889 14.0114 13.2432 13.9592Z" fill="#59468D"/>
</svg>
