<svg width="21" height="21" viewBox="0 0 21 21" fill="none" xmlns="http://www.w3.org/2000/svg">
<path d="M0.739014 2.73926H21.0001" stroke="#59468D"/>
<path d="M0.739014 10.6221H21.0001" stroke="#59468D"/>
<path d="M0.739014 18.5039H21.0001" stroke="#59468D"/>
<path d="M10.7812 1.47754C11.4781 1.47754 12.0429 2.04242 12.043 2.73926C12.043 3.43613 11.4781 4.00098 10.7812 4.00098C10.0844 4.00093 9.51953 3.4361 9.51953 2.73926C9.51958 2.04245 10.0844 1.47758 10.7812 1.47754Z" fill="white" stroke="#59468D"/>
<path d="M5.40991 9.35986C6.10676 9.35986 6.67159 9.92475 6.67163 10.6216C6.67163 11.3185 6.10679 11.8833 5.40991 11.8833C4.71308 11.8833 4.14819 11.3184 4.14819 10.6216C4.14824 9.92477 4.7131 9.35991 5.40991 9.35986Z" fill="white" stroke="#59468D"/>
<path d="M17.3 17.2422C17.9969 17.2422 18.5617 17.8071 18.5618 18.5039C18.5618 19.2008 17.9969 19.7656 17.3 19.7656C16.6032 19.7656 16.0383 19.2008 16.0383 18.5039C16.0384 17.8071 16.6032 17.2422 17.3 17.2422Z" fill="white" stroke="#59468D"/>
</svg>
