<svg width="93" height="38" viewBox="0 0 93 38" fill="none" xmlns="http://www.w3.org/2000/svg">
<rect x="0.25" y="0.25" width="91.6686" height="37.5" rx="18.75" stroke="#D5D917" stroke-width="0.5"/>
<path d="M26.808 12.4L20.994 23.164C20.622 23.86 20.178 24.376 19.662 24.712C19.158 25.048 18.618 25.216 18.042 25.216C17.598 25.216 17.118 25.108 16.602 24.892L16.89 24.136C17.298 24.304 17.682 24.388 18.042 24.388C18.894 24.388 19.602 23.914 20.166 22.966L20.598 22.228L15.432 12.4H16.44L21.102 21.364L25.854 12.4H26.808ZM33.0225 19.024H29.9985V25H29.0805V12.4H29.9985V18.196H33.0405L37.5585 12.4H38.5845L33.7605 18.538L38.9085 25H37.8285L33.0225 19.024ZM45.6747 12.4C47.2587 12.4 48.5007 12.778 49.4007 13.534C50.3007 14.278 50.7507 15.316 50.7507 16.648C50.7507 17.968 50.3007 19.006 49.4007 19.762C48.5007 20.506 47.2587 20.878 45.6747 20.878H42.0747V25H41.1567V12.4H45.6747ZM45.6747 20.05C47.0187 20.05 48.0447 19.756 48.7527 19.168C49.4607 18.58 49.8147 17.74 49.8147 16.648C49.8147 15.556 49.4607 14.716 48.7527 14.128C48.0447 13.528 47.0187 13.228 45.6747 13.228H42.0747V20.05H45.6747Z" fill="#59468D"/>
<path d="M62 15.2078L69.5843 22.7921L77.1686 15.2078" stroke="#59468D"/>
</svg>
